<?xml version="1.0" encoding="utf-8"?>
<!-- Generator: Adobe Illustrator 16.0.0, SVG Export Plug-In . SVG Version: 6.00 Build 0)  -->
<!DOCTYPE svg PUBLIC "-//W3C//DTD SVG 1.1//EN" "http://www.w3.org/Graphics/SVG/1.1/DTD/svg11.dtd">
<svg version="1.1" id="Capa_1" xmlns="http://www.w3.org/2000/svg" xmlns:xlink="http://www.w3.org/1999/xlink" x="0px" y="0px"
	 width="34.85px" height="36.838px" viewBox="0 0 34.85 36.838" enable-background="new 0 0 34.85 36.838" xml:space="preserve">
<g>
	<path fill="#558DFA" d="M13.818,18.4l4.585-6.612c0.62-0.894,1.605-1.459,2.679-1.554c-0.022-0.228-0.09-0.455-0.213-0.666
		c-0.454-0.778-1.453-1.042-2.23-0.588l-1.096,0.639c0.257-0.482,0.267-1.082-0.028-1.588c-0.453-0.778-1.452-1.042-2.23-0.588
		l-9.808,5.714l1.084-2.755c0.33-0.838-0.083-1.786-0.921-2.115c-0.838-0.33-1.785,0.083-2.115,0.92c0,0-2.101,5.299-2.783,7.072
		c-0.677,1.76-1.127,3.057-0.274,4.522l1.969,3.379c1.006,1.727,3.033,2.496,4.875,1.992l-0.364-5.847
		c-0.125-2.012,1.402-3.743,3.415-3.868C11.83,16.365,13.163,17.159,13.818,18.4z"/>
	<path fill="#558DFA" d="M25.772,9.078c0.354,0.354,0.929,0.354,1.284,0L31.5,4.634c0.354-0.354,0.354-0.929,0-1.284
		s-0.929-0.354-1.284,0l-4.444,4.444C25.417,8.149,25.417,8.724,25.772,9.078z"/>
	<path fill="#558DFA" d="M23.146,6.309c0.477,0.151,0.988-0.111,1.14-0.589l1.444-4.536c0.152-0.478-0.112-0.988-0.589-1.141
		C24.663-0.109,24.152,0.155,24,0.633l-1.444,4.535C22.404,5.646,22.668,6.156,23.146,6.309z"/>
	<path fill="#558DFA" d="M34.807,9.71c-0.152-0.478-0.662-0.742-1.141-0.59l-4.535,1.444c-0.512,0.164-0.786,0.745-0.542,1.255
		c0.038,0.057,0.074,0.114,0.108,0.173c0.231,0.29,0.618,0.418,0.985,0.301l4.535-1.444C34.695,10.698,34.959,10.188,34.807,9.71z"
		/>
	<path fill="#558DFA" d="M28.34,21.713c-0.536-0.372-1.208-0.419-1.776-0.172l1.733-2.5c0.577-0.833,0.371-1.975-0.462-2.551
		c-0.537-0.372-1.208-0.42-1.776-0.172l0.995-1.436c0.577-0.832,0.371-1.974-0.461-2.551c-0.831-0.576-1.974-0.371-2.551,0.461
		l-0.812,1.172c0.032-0.614-0.242-1.229-0.784-1.604c-0.831-0.576-1.973-0.371-2.551,0.462l-7.27,10.481l-0.207-3.321
		c-0.063-1.01-0.933-1.779-1.943-1.715c-1.011,0.063-1.779,0.933-1.716,1.943c0,0,0.373,6.394,0.53,8.523
		c0.159,2.162,0.306,3.648,1.871,4.734l3.613,2.505c0.841,0.583,1.805,0.864,2.759,0.864c1.54,0,3.055-0.729,3.997-2.086
		c1.574-2.271,5.892-8.496,7.273-10.488C29.379,23.433,29.173,22.29,28.34,21.713z"/>
</g>
</svg>
