<?xml version="1.0" encoding="utf-8"?>
<!-- Generator: Adobe Illustrator 16.0.0, SVG Export Plug-In . SVG Version: 6.00 Build 0)  -->
<!DOCTYPE svg PUBLIC "-//W3C//DTD SVG 1.1//EN" "http://www.w3.org/Graphics/SVG/1.1/DTD/svg11.dtd">
<svg version="1.1" id="Capa_1" xmlns="http://www.w3.org/2000/svg" xmlns:xlink="http://www.w3.org/1999/xlink" x="0px" y="0px"
	 width="33.818px" height="35.472px" viewBox="0 0 33.818 35.472" enable-background="new 0 0 33.818 35.472" xml:space="preserve">
<g>
	<path fill="#558DFA" d="M33.007,21.781c-0.714,7.188-6.538,12.965-13.73,13.625c-8.502,0.781-15.752-5.47-16.593-13.595H1.185
		c-0.911,0-1.48-0.986-1.025-1.774l3.352-5.804c0.456-0.789,1.594-0.789,2.049,0l3.351,5.804c0.456,0.788-0.114,1.774-1.025,1.774
		H6.583c0.847,6.066,6.495,10.616,12.97,9.667c4.792-0.702,8.678-4.482,9.493-9.256c1.219-7.146-4.28-13.364-11.203-13.364
		c-2.245,0-4.412,0.651-6.273,1.885c-0.864,0.573-2.061,0.46-2.695-0.36C8.184,9.49,8.4,8.216,9.32,7.595
		c1.997-1.35,4.261-2.192,6.633-2.486V2.909H14.4c-0.534,0-0.967-0.434-0.967-0.968V0.967C13.433,0.434,13.866,0,14.4,0h7.2
		c0.534,0,0.967,0.434,0.967,0.967v0.975c0,0.534-0.433,0.968-0.967,0.968h-1.71v2.223C27.822,6.202,33.84,13.393,33.007,21.781z
		 M33.507,7.145l-2.916-2.695c-0.392-0.362-1.004-0.339-1.367,0.054l-0.771,0.835c-0.363,0.392-0.338,1.004,0.054,1.366l2.917,2.695
		c0.392,0.362,1.004,0.339,1.367-0.054l0.771-0.834C33.924,8.119,33.9,7.508,33.507,7.145z M17.797,10.847v9.459h9.365
		C27.162,14.546,22.791,10.847,17.797,10.847z"/>
</g>
</svg>
