<?xml version="1.0" encoding="utf-8"?>
<!-- Generator: Adobe Illustrator 16.0.0, SVG Export Plug-In . SVG Version: 6.00 Build 0)  -->
<!DOCTYPE svg PUBLIC "-//W3C//DTD SVG 1.1//EN" "http://www.w3.org/Graphics/SVG/1.1/DTD/svg11.dtd">
<svg version="1.1" id="Capa_1" xmlns="http://www.w3.org/2000/svg" xmlns:xlink="http://www.w3.org/1999/xlink" x="0px" y="0px"
	 width="25.825px" height="25.79px" viewBox="0 0 25.825 25.79" enable-background="new 0 0 25.825 25.79" xml:space="preserve">
<g>
	<path fill="#558DFA" d="M24.12,1.709c-2.277-2.278-5.984-2.279-8.262,0l-4.475,4.475c-0.19,0.19-0.19,0.498,0,0.688
		s0.498,0.19,0.688,0l4.475-4.475c0.916-0.915,2.138-1.419,3.442-1.419c1.305,0,2.527,0.504,3.442,1.42s1.42,2.138,1.42,3.442
		c0,1.305-0.505,2.527-1.42,3.442l-5.852,5.853c-1.897,1.898-4.987,1.898-6.885,0c-0.19-0.19-0.498-0.19-0.688,0
		c-0.19,0.19-0.19,0.498,0,0.688c1.139,1.139,2.635,1.708,4.131,1.708s2.993-0.569,4.131-1.708l5.853-5.853
		c1.099-1.1,1.705-2.566,1.705-4.131S25.219,2.808,24.12,1.709z"/>
	<path fill="#558DFA" d="M13.104,19.61l-3.787,3.787c-0.915,0.915-2.138,1.42-3.442,1.42s-2.527-0.505-3.442-1.42
		c-1.898-1.897-1.898-4.987,0-6.885l5.508-5.508c1.898-1.898,4.987-1.897,6.885,0c0.19,0.19,0.498,0.19,0.688,0
		c0.19-0.19,0.19-0.498,0-0.688c-2.277-2.278-5.984-2.279-8.262,0l-5.509,5.508c-1.1,1.099-1.705,2.566-1.705,4.131
		c0,1.564,0.606,3.031,1.705,4.13c1.1,1.099,2.566,1.705,4.131,1.705c1.565,0,3.032-0.605,4.131-1.705l3.787-3.787
		c0.19-0.19,0.19-0.498,0-0.688C13.601,19.42,13.294,19.42,13.104,19.61z"/>
</g>
</svg>
