<?xml version="1.0" encoding="utf-8"?>
<!-- Generator: Adobe Illustrator 16.0.0, SVG Export Plug-In . SVG Version: 6.00 Build 0)  -->
<!DOCTYPE svg PUBLIC "-//W3C//DTD SVG 1.1//EN" "http://www.w3.org/Graphics/SVG/1.1/DTD/svg11.dtd">
<svg version="1.1" id="Capa_1" xmlns="http://www.w3.org/2000/svg" xmlns:xlink="http://www.w3.org/1999/xlink" x="0px" y="0px"
	 width="34.958px" height="34.963px" viewBox="0 0 34.958 34.963" enable-background="new 0 0 34.958 34.963" xml:space="preserve">
<g>
	<path fill="#FFFFFF" d="M32.646,2.316c-3.087-3.088-8.112-3.089-11.2,0l-6.067,6.067c-0.258,0.258-0.258,0.675,0,0.933
		c0.258,0.258,0.675,0.258,0.933,0l6.067-6.067c1.241-1.241,2.898-1.924,4.667-1.924c1.77,0,3.426,0.684,4.667,1.924
		c1.241,1.241,1.924,2.898,1.924,4.667c0,1.769-0.684,3.426-1.924,4.667l-7.933,7.935c-2.572,2.573-6.761,2.573-9.334,0
		c-0.258-0.258-0.676-0.258-0.934,0c-0.258,0.258-0.258,0.675,0,0.933c1.544,1.544,3.572,2.316,5.6,2.316
		c2.028,0,4.057-0.772,5.6-2.316l7.934-7.935c1.49-1.49,2.312-3.479,2.312-5.6S34.136,3.807,32.646,2.316z"/>
	<path fill="#FFFFFF" d="M17.712,26.584l-5.134,5.134c-1.24,1.241-2.897,1.925-4.667,1.925s-3.425-0.684-4.667-1.925
		c-2.573-2.573-2.573-6.761,0-9.334l7.467-7.467c2.573-2.573,6.761-2.571,9.334,0c0.258,0.258,0.675,0.258,0.933,0
		c0.258-0.258,0.258-0.675,0-0.933c-3.087-3.088-8.112-3.089-11.2,0l-7.468,7.468C0.82,22.941,0,24.93,0,27.051
		c0,2.122,0.821,4.11,2.312,5.6s3.479,2.312,5.6,2.312c2.122,0,4.11-0.821,5.6-2.312l5.134-5.133c0.258-0.258,0.258-0.675,0-0.934
		C18.387,26.326,17.97,26.327,17.712,26.584z"/>
</g>
</svg>
